# xmcd
#
# Track frame offsets:
#	150
#	14031
#	30587
#	48796
#	66702
#
# Disc length: 1071 seconds
#
# Revision: 0
# Processed by: cddbd v1.5.2PL0 Copyright (c) Steve Scherf et al.
# Submitted via: audiograbber 1.83.01
#
DISCID=41042d05
DTITLE=Cole Swindell - Down Home Sessions
DYEAR=2014
DGENRE=Country
TTITLE0=Ready
TTITLE1=The Way You're Lovin' Me Now
TTITLE2=Kiss
TTITLE3=Workin' on Me
TTITLE4=Boomerang
EXTD=
EXTT0=
EXTT1=
EXTT2=
EXTT3=
EXTT4=
PLAYORDER=
